<?xml version="1.0" encoding="UTF-8" standalone="no"?>
<svg
   xmlns:dc="http://purl.org/dc/elements/1.1/"
   xmlns:cc="http://creativecommons.org/ns#"
   xmlns:rdf="http://www.w3.org/1999/02/22-rdf-syntax-ns#"
   xmlns:svg="http://www.w3.org/2000/svg"
   xmlns="http://www.w3.org/2000/svg"
   xmlns:sodipodi="http://sodipodi.sourceforge.net/DTD/sodipodi-0.dtd"
   xmlns:inkscape="http://www.inkscape.org/namespaces/inkscape"
   width="160.00005mm"
   height="160.00006mm"
   viewBox="0 0 160.00005 160.00006"
   version="1.1"
   id="svg8"
   inkscape:version="1.0 (4035a4fb49, 2020-05-01)"
   sodipodi:docname="Logo.svg">
  <defs
     id="defs2" />
  <sodipodi:namedview
     fit-margin-bottom="0"
     fit-margin-right="0"
     fit-margin-left="0"
     fit-margin-top="0"
     id="base"
     pagecolor="#ffffff"
     bordercolor="#666666"
     borderopacity="1.0"
     inkscape:pageopacity="0.0"
     inkscape:pageshadow="2"
     inkscape:zoom="0.98994949"
     inkscape:cx="438.54396"
     inkscape:cy="325.38081"
     inkscape:document-units="mm"
     inkscape:current-layer="layer1"
     inkscape:document-rotation="0"
     showgrid="false"
     inkscape:window-width="1624"
     inkscape:window-height="1020"
     inkscape:window-x="219"
     inkscape:window-y="0"
     inkscape:window-maximized="0"
     showguides="false" />
  <metadata
     id="metadata5">
    <rdf:RDF>
      <cc:Work
         rdf:about="">
        <dc:format>image/svg+xml</dc:format>
        <dc:type
           rdf:resource="http://purl.org/dc/dcmitype/StillImage" />
        <dc:title></dc:title>
      </cc:Work>
    </rdf:RDF>
  </metadata>
  <g
     transform="translate(-25.000025,-59.999954)"
     inkscape:label="Layer 1"
     inkscape:groupmode="layer"
     id="layer1"
     style="opacity:1">
    <g
       aria-label="ayce"
       transform="scale(0.97742424,1.0230972)"
       id="text855"
       style="font-size:10.7985px;line-height:1.25;font-family:'Poiret One';-inkscape-font-specification:'Poiret One';stroke-width:0.269964">
      <path
         id="path856"
         style="font-size:51.8331px;stroke-width:0.269964"
         d="m 149.50918,144.25153 h -0.46649 q -4.92415,0 -8.6043,-3.68015 -3.62831,-3.73198 -3.62831,-8.65613 0,-4.92414 3.62831,-8.50063 3.62832,-3.62831 8.96713,-3.62831 5.33881,0 9.17446,4.25031 l -16.2756,16.06826 q 3.36916,2.69532 6.47914,2.69532 3.10999,0 5.54614,-1.39949 2.48799,-1.45133 4.09482,-3.83565 v 2.64349 q -3.68015,4.04298 -8.9153,4.04298 z m -0.57016,-23.0139 q -4.09481,0 -7.30847,3.21366 -3.16182,3.16181 -3.16182,7.30846 0,4.14665 2.74716,7.25664 l 15.08343,-14.97977 q -3.21365,-2.79899 -7.3603,-2.79899 z m -24.49438,23.06573 h -0.4665 q -4.97598,0 -8.55246,-3.68015 -3.57648,-3.68015 -3.57648,-8.60429 0,-4.97598 3.62831,-8.55246 3.62832,-3.62832 8.9153,-3.62832 5.28697,0 9.01896,3.99115 v 2.64349 q -1.60683,-2.38433 -4.09482,-3.78382 -2.43615,-1.39949 -5.13148,-1.39949 -4.30214,0 -7.5158,3.21365 -3.16181,3.16182 -3.16181,7.56763 0,4.40581 3.16181,7.61947 3.21366,3.16182 7.5158,3.16182 2.69533,0 5.13148,-1.3995 2.48799,-1.39949 4.09482,-3.83565 v 2.69532 q -3.62832,3.99115 -8.96713,3.99115 z m -18.65506,-23.99872 h 1.65866 v 22.59923 q 0,4.61314 -3.21365,7.8268 -3.21365,3.21365 -7.878631,3.21365 -5.597974,0 -8.86346,-4.30215 l 0.103667,-2.59165 q 1.451326,2.48799 3.783816,3.93931 2.384323,1.50316 4.975977,1.50316 3.835651,0 6.634641,-2.79899 2.79898,-2.74715 2.79898,-6.63463 v -3.93932 q -2.53982,5.07965 -8.863456,5.07965 -4.302148,0 -7.360301,-3.00632 -3.058152,-3.05816 -3.058152,-7.30847 v -13.58027 h 1.658659 v 13.58027 q 0,3.57648 2.591655,6.21997 2.643488,2.64349 6.219972,2.64349 3.576483,0 6.168143,-2.64349 2.64348,-2.64349 2.64348,-6.21997 z m -24.950344,0 v 23.32489 h -1.658659 v -5.80531 q -1.451327,2.95449 -4.353981,4.66498 -2.902653,1.7105 -6.219972,1.7105 -5.079643,0 -8.70796,-3.57649 -3.628317,-3.62831 -3.628317,-8.65613 0,-5.02781 3.628317,-8.60429 3.628317,-3.62832 8.70796,-3.62832 3.317319,0 6.323638,1.76233 3.058153,1.76232 4.250315,4.66498 v -5.85714 z m -22.91023,11.71428 q 0,4.35398 3.161819,7.56763 3.213652,3.16182 7.567632,3.16182 4.405814,0 7.5158,-3.16182 3.109986,-3.21365 3.109986,-7.56763 0,-4.40582 -3.161819,-7.61947 -3.109986,-3.21365 -7.463967,-3.21365 -4.35398,0 -7.567632,3.26549 -3.161819,3.21365 -3.161819,7.56763 z M 107.42499,68.419561 a 71.616803,68.419696 0 0 0 -71.61666,68.420069 71.616803,68.419696 0 0 0 5.115703,25.3938 v -7.60476 a 69.05906,65.976135 0 0 1 -2.557852,-17.78904 69.05906,65.976135 0 0 1 69.058809,-65.976407 69.05906,65.976135 0 0 1 18.62082,2.443664 h 7.96011 a 71.616803,68.419696 0 0 0 -26.58093,-4.887326 z m 66.50149,43.025259 v 7.60627 a 69.05906,65.976135 0 0 1 2.55785,17.78854 69.05906,65.976135 0 0 1 -69.05934,65.97589 69.05906,65.976135 0 0 1 -18.620816,-2.44366 h -7.958522 a 71.616803,68.419696 0 0 0 26.579338,4.88733 71.616803,68.419696 0 0 0 71.61719,-68.41956 71.616803,68.419696 0 0 0 -5.1157,-25.39481 z M 107.42499,58.645409 a 81.847773,78.193937 0 0 0 -81.847535,78.194221 81.847773,78.193937 0 0 0 81.847535,78.19371 81.847773,78.193937 0 0 0 81.84807,-78.19371 81.847773,78.193937 0 0 0 -81.84807,-78.194221 z m 0,2.443664 a 79.290033,75.750378 0 0 1 79.29022,75.750557 79.290033,75.750378 0 0 1 -79.29022,75.75004 79.290033,75.750378 0 0 1 -79.289684,-75.75004 79.290033,75.750378 0 0 1 79.289684,-75.750557 z" />
    </g>
  </g>
  <g
     transform="translate(-25.000025,-59.999954)"
     inkscape:groupmode="layer"
     id="layer2"
     inkscape:label="Layer 2" />
</svg>
