<?xml version="1.0" encoding="UTF-8" standalone="no"?>
<svg
   xmlns:dc="http://purl.org/dc/elements/1.1/"
   xmlns:cc="http://creativecommons.org/ns#"
   xmlns:rdf="http://www.w3.org/1999/02/22-rdf-syntax-ns#"
   xmlns:svg="http://www.w3.org/2000/svg"
   xmlns="http://www.w3.org/2000/svg"
   xmlns:sodipodi="http://sodipodi.sourceforge.net/DTD/sodipodi-0.dtd"
   xmlns:inkscape="http://www.inkscape.org/namespaces/inkscape"
   sodipodi:docname="Four_Star.svg"
   inkscape:version="1.0 (4035a4fb49, 2020-05-01)"
   id="svg8"
   version="1.1"
   viewBox="0 0 560.00012 100.00009"
   height="100%"
   width="100%">
  <defs
     id="defs2" />
  <sodipodi:namedview
     inkscape:window-maximized="0"
     inkscape:window-y="7"
     inkscape:window-x="173"
     inkscape:window-height="1020"
     inkscape:window-width="1624"
     fit-margin-bottom="0"
     fit-margin-right="0"
     fit-margin-left="0"
     fit-margin-top="0"
     showgrid="false"
     inkscape:document-rotation="0"
     inkscape:current-layer="layer1"
     inkscape:document-units="mm"
     inkscape:cy="185.5017"
     inkscape:cx="860.26617"
     inkscape:zoom="0.34745282"
     inkscape:pageshadow="2"
     inkscape:pageopacity="0.0"
     borderopacity="1.0"
     bordercolor="#666666"
     pagecolor="#ffffff"
     id="base" />
  <metadata
     id="metadata5">
    <rdf:RDF>
      <cc:Work
         rdf:about="">
        <dc:format>image/svg+xml</dc:format>
        <dc:type
           rdf:resource="http://purl.org/dc/dcmitype/StillImage" />
        <dc:title></dc:title>
      </cc:Work>
    </rdf:RDF>
  </metadata>
  <g
     transform="translate(-100.34602,-85.596176)"
     id="layer1"
     inkscape:groupmode="layer"
     inkscape:label="Layer 1">
    <path
       d="m 111.03684,85.596176 c -5.92269,0 -10.69082,4.768127 -10.69082,10.69082 v 78.618454 c 0,5.92269 4.76813,10.69082 10.69082,10.69082 h 78.61846 c 5.92269,0 10.69082,-4.76813 10.69082,-10.69082 V 96.286996 c 0,-5.922693 -4.76813,-10.69082 -10.69082,-10.69082 z m 39.26944,10.925431 12.39459,25.039293 27.64482,3.98012 -19.97345,19.53059 4.75836,27.53269 -24.73854,-12.96872 -24.70392,13.03538 4.68396,-27.54508 -20.02617,-19.47634 27.63397,-4.05504 z"
       style="fill:#8d0f39;stroke-width:1.22049;fill-opacity:1"
       id="path862" />
    <path
       id="path862-1"
       style="fill:#8d0f39;stroke-width:1.22049;fill-opacity:1"
       d="m 226.03684,85.596176 c -5.92269,0 -10.69082,4.768127 -10.69082,10.69082 v 78.618454 c 0,5.92269 4.76813,10.69082 10.69082,10.69082 h 78.61846 c 5.92269,0 10.69082,-4.76813 10.69082,-10.69082 V 96.286996 c 0,-5.922693 -4.76813,-10.69082 -10.69082,-10.69082 z m 39.26944,10.925431 12.39459,25.039293 27.64482,3.98012 -19.97345,19.53059 4.75836,27.53269 -24.73854,-12.96872 -24.70392,13.03538 4.68396,-27.54508 -20.02617,-19.47634 27.63397,-4.05504 z" />
    <path
       d="m 341.03684,85.596176 c -5.92269,0 -10.69082,4.768127 -10.69082,10.69082 v 78.618454 c 0,5.92269 4.76813,10.69082 10.69082,10.69082 h 78.61846 c 5.92269,0 10.69082,-4.76813 10.69082,-10.69082 V 96.286996 c 0,-5.922693 -4.76813,-10.69082 -10.69082,-10.69082 z m 39.26944,10.925431 12.39459,25.039293 27.64482,3.98012 -19.97345,19.53059 4.75836,27.53269 -24.73854,-12.96872 -24.70392,13.03538 4.68396,-27.54508 -20.02617,-19.47634 27.63397,-4.05504 z"
       style="fill:#8d0f39;stroke-width:1.22049;fill-opacity:1"
       id="path862-1-6" />
    <path
       id="path862-1-6-0"
       style="fill:#8d0f39;stroke-width:1.22049;fill-opacity:1"
       d="m 456.03684,85.596176 c -5.92269,0 -10.69082,4.768127 -10.69082,10.69082 v 78.618454 c 0,5.92269 4.76813,10.69082 10.69082,10.69082 h 78.61846 c 5.92269,0 10.69082,-4.76813 10.69082,-10.69082 V 96.286996 c 0,-5.922693 -4.76813,-10.69082 -10.69082,-10.69082 z m 39.26944,10.925431 12.39459,25.039293 27.64482,3.98012 -19.97345,19.53059 4.75836,27.53269 -24.73854,-12.96872 -24.70392,13.03538 4.68396,-27.54508 -20.02617,-19.47634 27.63397,-4.05504 z" />
    <path
       d="m 571.03684,85.596176 c -5.92269,0 -10.69082,4.76812 -10.69082,10.69082 v 78.618454 c 0,5.92269 4.76813,10.69082 10.69082,10.69082 h 78.61846 c 5.92269,0 10.69082,-4.76813 10.69082,-10.69082 V 96.286996 c 0,-5.9227 -4.76813,-10.69082 -10.69082,-10.69082 z m 39.26944,10.92543 12.39459,25.039294 27.64482,3.98012 -19.97345,19.53059 4.75836,27.53269 -24.73854,-12.96872 -24.70392,13.03538 4.68396,-27.54508 -20.02617,-19.47634 27.63397,-4.05504 z"
       style="fill:#000000;stroke-width:1.22049"
       id="path862-1-6-0-6" />
  </g>
</svg>
