<?xml version="1.0" encoding="UTF-8" standalone="no"?>
<svg
   xmlns:dc="http://purl.org/dc/elements/1.1/"
   xmlns:cc="http://creativecommons.org/ns#"
   xmlns:rdf="http://www.w3.org/1999/02/22-rdf-syntax-ns#"
   xmlns:svg="http://www.w3.org/2000/svg"
   xmlns="http://www.w3.org/2000/svg"
   xmlns:sodipodi="http://sodipodi.sourceforge.net/DTD/sodipodi-0.dtd"
   xmlns:inkscape="http://www.inkscape.org/namespaces/inkscape"
   sodipodi:docname="Bowtie.svg"
   inkscape:version="1.0 (4035a4fb49, 2020-05-01)"
   id="svg8"
   version="1.1"
   viewBox="0 0 100 75.000076"
   height="75.000076mm"
   width="100mm">
  <defs
     id="defs2" />
  <sodipodi:namedview
     inkscape:window-maximized="1"
     inkscape:window-y="-11"
     inkscape:window-x="-11"
     inkscape:window-height="986"
     inkscape:window-width="1920"
     fit-margin-bottom="0"
     fit-margin-right="0"
     fit-margin-left="0"
     fit-margin-top="0"
     showgrid="false"
     inkscape:document-rotation="0"
     inkscape:current-layer="layer1"
     inkscape:document-units="mm"
     inkscape:cy="153.55424"
     inkscape:cx="207.44831"
     inkscape:zoom="1.9300999"
     inkscape:pageshadow="2"
     inkscape:pageopacity="0.0"
     borderopacity="1.0"
     bordercolor="#666666"
     pagecolor="#ffffff"
     id="base" />
  <metadata
     id="metadata5">
    <rdf:RDF>
      <cc:Work
         rdf:about="">
        <dc:format>image/svg+xml</dc:format>
        <dc:type
           rdf:resource="http://purl.org/dc/dcmitype/StillImage" />
        <dc:title></dc:title>
      </cc:Work>
    </rdf:RDF>
  </metadata>
  <g
     transform="translate(-35.463479,-52.049156)"
     id="layer1"
     inkscape:groupmode="layer"
     inkscape:label="Layer 1">
    <path
       d="m 52.844729,52.049156 v 7.248139 l -6.683198,-3.012737 -1.35627,1.833997 2.402601,7.000605 -7.455173,-1.559079 -0.701956,2.045354 5.061758,6.844543 -7.767982,1.624708 0.701954,2.045354 6.528226,2.942971 -8.11121,2.952792 1.145627,1.91978 7.060288,1.476396 -5.202953,2.844271 -0.771403,0.421161 v 5.18e-4 l -1.048627,0.573091 -0.545262,0.297656 1.064125,0.581877 0.529764,0.289388 v 5.18e-4 l 0.771403,0.421161 5.202953,2.844271 -7.060288,1.476912 -1.145627,1.919264 8.11121,2.952793 -6.528226,2.94297 -0.701954,2.04587 7.767982,1.62471 -5.061758,6.84454 0.701956,2.04535 7.455173,-1.55907 -2.402601,7.0006 1.35627,1.834 6.683198,-3.01274 v 7.24814 H 55.55784 L 76.642279,110.5474 a 41.650558,37.499999 0 0 0 5.822257,-11.518166 h 5.997889 a 41.650556,37.499999 0 0 0 5.822256,11.518166 l 21.084439,16.50183 h 2.71312 v -7.24814 l 6.68319,3.01274 1.35627,-1.834 -2.4026,-7.0006 7.45517,1.55907 0.70196,-2.04535 -5.06176,-6.84454 7.76798,-1.62471 -0.70195,-2.04587 -6.52823,-2.94297 8.11121,-2.952793 -1.14562,-1.919264 -7.0603,-1.476912 5.20296,-2.844271 0.7714,-0.421161 v -5.18e-4 l 0.52977,-0.289388 1.06412,-0.581877 -0.54526,-0.297656 -1.04863,-0.573091 v -5.18e-4 l -0.7714,-0.421161 -5.20296,-2.844271 7.0603,-1.476396 1.14562,-1.91978 -8.11121,-2.952792 6.52823,-2.942971 0.70195,-2.045354 -7.76798,-1.624708 5.06176,-6.844543 -0.70196,-2.045354 -7.45517,1.559079 2.4026,-7.000605 -1.35627,-1.833997 -6.68319,3.012737 v -7.248139 h -2.71312 L 94.017214,68.760797 A 41.650556,37.499999 0 0 0 88.529579,79.693465 H 82.397384 A 41.650558,37.499999 0 0 0 76.909747,68.760797 L 55.55784,52.049156 Z m 2.713111,2.995168 4.202539,3.280418 0.01493,-0.0155 4.265675,3.338298 a 38.110262,34.125 0 0 1 15.161739,20.50314 l -11.615816,-3.807005 -0.379963,0.939996 12.255208,4.015774 h 2.935234 6.132195 2.935235 L 103.72002,79.283671 103.34006,78.343675 91.724244,82.15068 A 38.110259,34.125 0 0 1 106.88599,61.647538 l 4.26567,-3.338298 0.0149,0.0155 4.20253,-3.280418 v 5.475634 l 1.35628,1.833481 6.07422,-2.737303 -2.10586,6.136061 0.70195,2.045353 6.77504,-1.416968 -4.06824,5.501989 -0.70253,2.044838 6.77504,1.417484 -7.0471,3.17655 1.35628,1.833997 6.00878,2.187463 -7.35816,1.538923 0.70195,2.045872 6.25961,3.420978 -6.25961,3.422015 -0.70195,2.045353 7.35816,1.538923 -6.00878,2.187464 -1.35628,1.834001 7.0471,3.17706 -6.77504,1.41749 0.70253,2.04483 4.06824,5.50199 -6.77504,-1.41696 -0.70195,2.04535 2.10586,6.13606 -6.07422,-2.73782 -1.35628,1.834 v 5.47563 l -3.08102,-2.40502 -0.007,0.006 -6.44845,-5.0462 A 38.110259,34.125 0 0 1 91.761549,96.950291 l 11.609501,3.804939 0.37996,-0.939996 -12.255203,-4.015777 h -2.966228 -6.132195 -2.966228 l -12.255207,4.015777 0.379961,0.939996 11.609501,-3.804939 A 38.110262,34.125 0 0 1 65.093622,116.60904 l -6.448447,5.0462 -0.0063,-0.006 -3.081019,2.40502 v -5.47563 l -1.35627,-1.834 -6.074225,2.73782 2.105863,-6.13606 -0.701954,-2.04535 -6.775031,1.41696 4.068232,-5.50199 0.702526,-2.04483 -6.775028,-1.41749 7.047085,-3.17706 -1.356267,-1.833999 -6.008794,-2.187464 7.358176,-1.538923 -0.701956,-2.045353 -6.259613,-3.422015 6.259613,-3.420978 0.701956,-2.045872 -7.358176,-1.538923 6.008794,-2.187463 1.356267,-1.833997 -7.047085,-3.17655 6.775028,-1.417484 -0.702526,-2.044838 -4.068232,-5.501989 6.775031,1.416968 0.701954,-2.045353 -2.105863,-6.136061 6.074225,2.737303 1.35627,-1.833481 z m 27.123079,25.649078 h 5.565122 a 41.650556,37.499999 0 0 0 -0.334045,1.35599 h -4.897032 a 41.650558,37.499999 0 0 0 -0.334045,-1.35599 z m 0.300756,16.355592 h 4.963614 a 41.650556,37.499999 0 0 0 0.240489,0.980302 h -5.444592 a 41.650558,37.499999 0 0 0 0.240489,-0.980302 z"
       style="fill:#ffffff;fill-opacity:1;stroke-width:0.0363941"
       id="rect833-0" />
  </g>
</svg>
