<?xml version="1.0" encoding="UTF-8" standalone="no"?>
<svg
   xmlns:dc="http://purl.org/dc/elements/1.1/"
   xmlns:cc="http://creativecommons.org/ns#"
   xmlns:rdf="http://www.w3.org/1999/02/22-rdf-syntax-ns#"
   xmlns:svg="http://www.w3.org/2000/svg"
   xmlns="http://www.w3.org/2000/svg"
   xmlns:sodipodi="http://sodipodi.sourceforge.net/DTD/sodipodi-0.dtd"
   xmlns:inkscape="http://www.inkscape.org/namespaces/inkscape"
   sodipodi:docname="Coffee[2].svg"
   inkscape:version="1.0 (4035a4fb49, 2020-05-01)"
   id="svg837"
   version="1.1"
   viewBox="0 0 63.69437 100.00028"
   height="100.00028mm"
   width="63.69437mm">
  <defs
     id="defs831" />
  <sodipodi:namedview
     inkscape:window-maximized="1"
     inkscape:window-y="-11"
     inkscape:window-x="-11"
     inkscape:window-height="986"
     inkscape:window-width="1920"
     fit-margin-bottom="0"
     fit-margin-right="0"
     fit-margin-left="0"
     fit-margin-top="0"
     showgrid="false"
     inkscape:document-rotation="0"
     inkscape:current-layer="layer1"
     inkscape:document-units="mm"
     inkscape:cy="275.84158"
     inkscape:cx="-25.575763"
     inkscape:zoom="0.7"
     inkscape:pageshadow="2"
     inkscape:pageopacity="0.0"
     borderopacity="1.0"
     bordercolor="#666666"
     pagecolor="#ffffff"
     id="base" />
  <metadata
     id="metadata834">
    <rdf:RDF>
      <cc:Work
         rdf:about="">
        <dc:format>image/svg+xml</dc:format>
        <dc:type
           rdf:resource="http://purl.org/dc/dcmitype/StillImage" />
        <dc:title></dc:title>
      </cc:Work>
    </rdf:RDF>
  </metadata>
  <g
     transform="translate(-45.08635,-43.702316)"
     id="layer1"
     inkscape:groupmode="layer"
     inkscape:label="Layer 1">
    <path
       d="m 56.66704,43.702316 -8.685664,16.54833 0.01915,0.01218 H 45.08635 v 7.643185 h 2.927338 l 5.971076,70.153649 0.01107,-0.001 a 22.959812,5.9005795 0 0 0 22.937549,5.64394 22.959812,5.9005795 0 0 0 22.938144,-5.64394 l 0.01108,0.001 5.970483,-70.153649 h 2.92763 v -7.643184 h -2.91417 l 0.0192,-0.01218 -8.685967,-16.548329 z m 1.671481,3.184852 h 37.190032 l 7.020167,13.375657 H 51.318056 Z M 47.981376,62.492155 H 105.8854 v 3.184853 H 47.981376 Z m 2.913274,5.413854 h 52.07777 l -1.29565,15.222517 H 52.190304 Z m 1.566753,18.407037 H 101.40567 L 98.864335,116.17351 H 55.002738 Z m 2.812436,33.045314 h 43.319394 l -1.569741,18.44423 a 20.089833,2.9502897 0 0 1 -20.090105,2.94984 20.089833,2.9502897 0 0 1 -20.089804,-2.94984 z"
       style="fill:#ffffff;stroke-width:0.804714"
       id="path1400" />
  </g>
</svg>
