<?xml version="1.0" encoding="UTF-8" standalone="no"?>
<svg
   xmlns:dc="http://purl.org/dc/elements/1.1/"
   xmlns:cc="http://creativecommons.org/ns#"
   xmlns:rdf="http://www.w3.org/1999/02/22-rdf-syntax-ns#"
   xmlns:svg="http://www.w3.org/2000/svg"
   xmlns="http://www.w3.org/2000/svg"
   xmlns:sodipodi="http://sodipodi.sourceforge.net/DTD/sodipodi-0.dtd"
   xmlns:inkscape="http://www.inkscape.org/namespaces/inkscape"
   sodipodi:docname="Croissant.svg"
   inkscape:version="1.0 (4035a4fb49, 2020-05-01)"
   id="svg8"
   version="1.1"
   viewBox="0 0 100 74.999977"
   height="100%"
   width="100%">
  <defs
     id="defs2" />
  <sodipodi:namedview
     inkscape:window-maximized="1"
     inkscape:window-y="-11"
     inkscape:window-x="-11"
     inkscape:window-height="986"
     inkscape:window-width="1920"
     fit-margin-bottom="0"
     fit-margin-right="0"
     fit-margin-left="0"
     fit-margin-top="0"
     showgrid="false"
     inkscape:document-rotation="0"
     inkscape:current-layer="layer1"
     inkscape:document-units="mm"
     inkscape:cy="228.2099"
     inkscape:cx="150.33247"
     inkscape:zoom="0.68239338"
     inkscape:pageshadow="2"
     inkscape:pageopacity="0.0"
     borderopacity="1.0"
     bordercolor="#666666"
     pagecolor="#ffffff"
     id="base" />
  <metadata
     id="metadata5">
    <rdf:RDF>
      <cc:Work
         rdf:about="">
        <dc:format>image/svg+xml</dc:format>
        <dc:type
           rdf:resource="http://purl.org/dc/dcmitype/StillImage" />
        <dc:title></dc:title>
      </cc:Work>
    </rdf:RDF>
  </metadata>
  <g
     transform="translate(-65.224533,-88.119465)"
     id="layer1"
     inkscape:groupmode="layer"
     inkscape:label="Layer 1">
    <path
       d="M 115.06962,88.119465 A 50.052094,71.587721 0 0 0 85.175729,102.43663 l 0.0703,0.17357 -0.0455,0.0375 0.007,0.0171 -0.0221,0.0182 2.94242,7.28929 a 50.052094,71.587721 0 0 0 -14.25479,19.61175 l -2.40926,5.96836 0.31659,0.45278 -0.0145,0.0354 0.74147,1.06049 a 13.683553,18.131828 49.019403 0 0 -7.08636,16.80416 13.683553,18.131828 49.019403 0 0 18.70015,7.74309 13.683553,18.131828 49.019403 0 0 4.04461,-2.15256 l 1.62847,2.32914 14.449311,-11.93081 0.96356,2.38637 h 20.02099 l 0.0138,-0.0343 0.94977,-2.35183 14.4486,11.9308 1.61675,-2.31237 a 18.131901,13.683595 40.979861 0 0 4.07083,2.17031 18.131901,13.683595 40.979861 0 0 18.70014,-7.74308 18.131901,13.683595 40.979861 0 0 -7.11049,-16.82586 l 1.06771,-1.52711 -2.40925,-5.96837 a 50.05245,71.587721 0 0 0 -14.27552,-19.63048 l 2.96242,-7.33959 -0.0462,-0.0375 0.0566,-0.13907 a 50.05245,71.587721 0 0 0 -1.18083,-1.22721 50.05245,71.587721 0 0 0 -0.28969,-0.29003 50.05245,71.587721 0 0 0 -0.29107,-0.28703 50.05245,71.587721 0 0 0 -0.27658,-0.26936 50.05245,71.587721 0 0 0 -0.0159,-0.0161 50.052094,71.587721 0 0 0 -0.0214,-0.0204 50.05245,71.587721 0 0 0 -0.24072,-0.23089 50.05245,71.587721 0 0 0 -0.031,-0.03 50.052094,71.587721 0 0 0 -0.17312,-0.163712 50.05245,71.587721 0 0 0 -0.003,-0.0031 50.052094,71.587721 0 0 0 -0.29314,-0.273319 50.052094,71.587721 0 0 0 -27.25013,-11.541137 50.052094,71.587721 0 0 0 -0.13725,0 z m 0.17243,4.807245 a 46.715615,66.815205 0 0 1 0.0655,0 46.715615,66.815205 0 0 1 0.11656,0 46.715615,66.815205 0 0 1 24.90295,10.45104 46.715615,66.815205 0 0 1 0.28763,0.26443 46.715615,66.815205 0 0 1 0.28624,0.26635 l -1.47397,3.65107 -0.0904,0.22393 -1.57881,3.9105 -0.0897,0.22297 -8.85415,21.93398 -3.83011,9.48821 -0.0138,0.0343 -1.65468,4.09894 h -16.16812 l -1.66848,-4.13347 -12.787721,-31.67967 -1.66917,-4.13444 -1.45396,-3.60076 A 46.715615,66.815205 0 0 1 115.24194,92.926501 Z m -15.628061,10.55266 -2.88931,2.38636 13.347101,33.06472 2.88931,-2.38636 z m 40.913131,10.8999 a 46.715287,66.815205 0 0 1 14.13271,20.62982 l -14.55483,20.81626 -12.23111,-10.09985 3.56594,-8.83416 z m -50.605311,0.0343 12.646321,31.32847 -12.210411,10.08309 -14.55414,-20.81627 a 46.715615,66.815205 0 0 1 14.11823,-20.59529 z m -16.20193,24.42097 0.34901,0.49917 12.3863,17.71469 a 11.158502,14.78593 49.019413 0 1 -2.96725,1.53896 11.158502,14.78593 49.019413 0 1 -15.2494,-6.31463 11.158502,14.78593 49.019413 0 1 5.48134,-13.43819 z m 82.985021,0.0129 a 14.785989,11.158536 40.979856 0 1 5.50548,13.45989 14.785989,11.158536 40.979856 0 1 -15.24939,6.31463 14.785989,11.158536 40.979856 0 1 -2.99415,-1.55571 l 12.68081,-18.13693 z"
       style="fill:#ffffff;fill-opacity:1;stroke-width:6.15706"
       id="path833-0" />
  </g>
</svg>
