<?xml version="1.0" encoding="UTF-8" standalone="no"?>
<svg
   xmlns:dc="http://purl.org/dc/elements/1.1/"
   xmlns:cc="http://creativecommons.org/ns#"
   xmlns:rdf="http://www.w3.org/1999/02/22-rdf-syntax-ns#"
   xmlns:svg="http://www.w3.org/2000/svg"
   xmlns="http://www.w3.org/2000/svg"
   xmlns:sodipodi="http://sodipodi.sourceforge.net/DTD/sodipodi-0.dtd"
   xmlns:inkscape="http://www.inkscape.org/namespaces/inkscape"
   sodipodi:docname="Hamburger.svg"
   inkscape:version="1.0 (4035a4fb49, 2020-05-01)"
   id="svg1408"
   version="1.1"
   viewBox="0 0 114.99969 69.750336"
   height="100%"
   width="100%">
  <defs
     id="defs1402" />
  <sodipodi:namedview
     fit-margin-bottom="0"
     fit-margin-right="0"
     fit-margin-left="0"
     fit-margin-top="0"
     inkscape:window-maximized="1"
     inkscape:window-y="-11"
     inkscape:window-x="-11"
     inkscape:window-height="986"
     inkscape:window-width="1920"
     showgrid="false"
     inkscape:document-rotation="0"
     inkscape:current-layer="layer1"
     inkscape:document-units="mm"
     inkscape:cy="130.86992"
     inkscape:cx="-85.911518"
     inkscape:zoom="0.49497475"
     inkscape:pageshadow="2"
     inkscape:pageopacity="0.0"
     borderopacity="1.0"
     bordercolor="#666666"
     pagecolor="#ffffff"
     id="base" />
  <metadata
     id="metadata1405">
    <rdf:RDF>
      <cc:Work
         rdf:about="">
        <dc:format>image/svg+xml</dc:format>
        <dc:type
           rdf:resource="http://purl.org/dc/dcmitype/StillImage" />
        <dc:title></dc:title>
      </cc:Work>
    </rdf:RDF>
  </metadata>
  <g
     transform="translate(-34.615458,-51.069161)"
     id="layer1"
     inkscape:groupmode="layer"
     inkscape:label="Layer 1">
    <path
       id="path1971"
       style="fill:#ffffff;fill-opacity:1;stroke-width:1.27745"
       d="m 347.43359,193.01758 a 190.93576,154.33182 0 0 0 -188.25586,132.2832 h 9.44922 10.03907 338.9746 10.04102 9.44922 a 190.93576,154.33182 0 0 0 -188.97656,-132.2832 190.93576,154.33182 0 0 0 -0.72071,0 z m -0.0215,11.02344 a 170.07874,132.28442 0 0 1 0.74219,0 170.07874,132.28442 0 0 1 167.6289,109.92187 H 180.52344 A 170.07874,132.28442 0 0 1 347.41211,204.04102 Z m 37.91016,23 a 3.7795276,3.7795276 0 0 0 -3.72852,3.77929 3.7795276,3.7795276 0 0 0 3.7793,3.7793 3.7795276,3.7795276 0 0 0 3.78125,-3.7793 3.7795276,3.7795276 0 0 0 -3.78125,-3.77929 3.7795276,3.7795276 0 0 0 -0.0508,0 z m -71.47657,14.38671 a 3.7795276,3.7795276 0 0 0 -3.72851,3.7793 3.7795276,3.7795276 0 0 0 3.77929,3.7793 3.7795276,3.7795276 0 0 0 3.7793,-3.7793 3.7795276,3.7795276 0 0 0 -3.7793,-3.7793 3.7795276,3.7795276 0 0 0 -0.0508,0 z m -51.25781,6.82618 a 3.7795276,3.7795276 0 0 0 -3.72656,3.77929 3.7795276,3.7795276 0 0 0 3.77929,3.7793 3.7795276,3.7795276 0 0 0 3.7793,-3.7793 3.7795276,3.7795276 0 0 0 -3.7793,-3.77929 3.7795276,3.7795276 0 0 0 -0.0527,0 z m 176.77734,4.04101 a 3.7795276,3.7795276 0 0 0 -3.72851,3.7793 3.7795276,3.7795276 0 0 0 3.78125,3.7793 3.7795276,3.7795276 0 0 0 3.7793,-3.7793 3.7795276,3.7795276 0 0 0 -3.7793,-3.7793 3.7795276,3.7795276 0 0 0 -0.0527,0 z m -42.93359,15.15235 a 3.7795276,3.7795276 0 0 0 -3.72656,3.77929 3.7795276,3.7795276 0 0 0 3.78125,3.7793 3.7795276,3.7795276 0 0 0 3.77929,-3.7793 3.7795276,3.7795276 0 0 0 -3.77929,-3.77929 3.7795276,3.7795276 0 0 0 -0.0527,0 z m -47.98242,3.53515 a 3.7795276,3.7795276 0 0 0 -3.72461,3.7793 3.7795276,3.7795276 0 0 0 3.7793,3.7793 3.7795276,3.7795276 0 0 0 3.77929,-3.7793 3.7795276,3.7795276 0 0 0 -3.77929,-3.7793 3.7795276,3.7795276 0 0 0 -0.0527,0 z m 98.99805,8.08203 a 3.7795276,3.7795276 0 0 0 -3.72852,3.7793 3.7795276,3.7795276 0 0 0 3.7793,3.7793 3.7795276,3.7795276 0 0 0 3.77929,-3.7793 3.7795276,3.7795276 0 0 0 -3.77929,-3.7793 3.7795276,3.7795276 0 0 0 -0.0508,0 z m -227.79102,3.0293 a 3.7795276,3.7795276 0 0 0 -3.72656,3.7793 3.7795276,3.7795276 0 0 0 3.77929,3.77929 3.7795276,3.7795276 0 0 0 3.7793,-3.77929 3.7795276,3.7795276 0 0 0 -3.7793,-3.7793 3.7795276,3.7795276 0 0 0 -0.0527,0 z m 53.0332,1.51563 a 3.7795276,3.7795276 0 0 0 -3.72656,3.77929 3.7795276,3.7795276 0 0 0 3.7793,3.7793 3.7795276,3.7795276 0 0 0 3.77929,-3.7793 3.7795276,3.7795276 0 0 0 -3.77929,-3.77929 3.7795276,3.7795276 0 0 0 -0.0527,0 z m 102.02344,10.60742 a 3.7795276,3.7795276 0 0 0 -3.72461,3.77929 3.7795276,3.7795276 0 0 0 3.7793,3.7793 3.7795276,3.7795276 0 0 0 3.7793,-3.7793 3.7795276,3.7795276 0 0 0 -3.7793,-3.77929 3.7795276,3.7795276 0 0 0 -0.0527,0 z m -215.74023,35.33593 a 28.346457,28.346457 0 0 0 -28.14258,28.34571 28.346457,28.346457 0 0 0 28.3457,28.3457 28.346457,28.346457 0 0 0 0.20313,0 h 377.75 a 28.346457,28.346457 0 0 0 28.3457,-28.3457 28.346457,28.346457 0 0 0 -28.3457,-28.34571 h -0.20508 -377.74805 a 28.346457,28.346457 0 0 0 -0.20312,0 z m 0.20507,60.94532 a 57.514431,66.141729 0 0 0 57.51368,66.14257 h 262.92382 a 57.514431,66.141729 0 0 0 57.51368,-66.14257 H 422.10156 274.20508 Z m 8.2168,9.44922 H 277.4199 418.8867 528.91209 a 55.0137,47.243497 0 0 1 -55.01367,47.24414 H 222.40625 a 55.0137,47.243497 0 0 1 -55.01172,-47.24414 z"
       transform="scale(0.26458333)" />
  </g>
</svg>
