<?xml version="1.0" encoding="UTF-8" standalone="no"?>
<svg
   xmlns:dc="http://purl.org/dc/elements/1.1/"
   xmlns:cc="http://creativecommons.org/ns#"
   xmlns:rdf="http://www.w3.org/1999/02/22-rdf-syntax-ns#"
   xmlns:svg="http://www.w3.org/2000/svg"
   xmlns="http://www.w3.org/2000/svg"
   xmlns:sodipodi="http://sodipodi.sourceforge.net/DTD/sodipodi-0.dtd"
   xmlns:inkscape="http://www.inkscape.org/namespaces/inkscape"
   sodipodi:docname="Ice Cream.svg"
   inkscape:version="1.0 (4035a4fb49, 2020-05-01)"
   id="svg8"
   version="1.1"
   viewBox="0 0 54.433117 100"
   height="100%"
   width="100%">
  <defs
     id="defs2" />
  <sodipodi:namedview
     inkscape:window-maximized="0"
     inkscape:window-y="26"
     inkscape:window-x="40"
     inkscape:window-height="1020"
     inkscape:window-width="1624"
     fit-margin-bottom="0"
     fit-margin-right="0"
     fit-margin-left="0"
     fit-margin-top="0"
     showgrid="false"
     inkscape:document-rotation="0"
     inkscape:current-layer="layer1"
     inkscape:document-units="mm"
     inkscape:cy="226.29965"
     inkscape:cx="-50.737393"
     inkscape:zoom="0.7"
     inkscape:pageshadow="2"
     inkscape:pageopacity="0.0"
     borderopacity="1.0"
     bordercolor="#666666"
     pagecolor="#ffffff"
     id="base" />
  <metadata
     id="metadata5">
    <rdf:RDF>
      <cc:Work
         rdf:about="">
        <dc:format>image/svg+xml</dc:format>
        <dc:type
           rdf:resource="http://purl.org/dc/dcmitype/StillImage" />
        <dc:title></dc:title>
      </cc:Work>
    </rdf:RDF>
  </metadata>
  <g
     transform="translate(-44.891463,-32.884001)"
     id="layer1"
     inkscape:groupmode="layer"
     inkscape:label="Layer 1">
    <path
       d="m 71.734951,32.884001 a 20.156501,20.156501 0 0 0 -20.156312,20.156659 20.156501,20.156501 0 0 0 0.821835,5.696598 10.07825,10.07825 0 0 0 -7.509011,9.745012 10.07825,10.07825 0 0 0 9.497108,10.061317 L 72.468595,132.884 91.094077,77.110324 A 10.07825,10.07825 0 0 0 99.324581,67.203166 10.07825,10.07825 0 0 0 91.422534,57.363019 20.156501,20.156501 0 0 0 91.89161,53.04066 20.156501,20.156501 0 0 0 71.734951,32.884001 Z m 10.714064,41.760123 a 10.07825,10.07825 0 0 0 4.032093,2.250237 l -4.963299,4.963304 -1.373546,-1.373551 a 10.07825,10.07825 0 0 0 2.304752,-5.83999 z m -20.060138,0.659344 a 10.07825,10.07825 0 0 0 2.428353,5.396609 l -1.251674,1.251679 -4.335901,-4.335901 a 10.07825,10.07825 0 0 0 3.159222,-2.312387 z m 24.856431,1.776996 a 10.07825,10.07825 0 0 0 0.971133,0.148256 l -2.70091,8.626665 -3.522403,-3.522403 z m -28.683676,0.818015 4.5286,4.528601 -3.565452,3.565449 -2.391551,-7.666988 a 10.07825,10.07825 0 0 0 1.428403,-0.427062 z m 21.135778,3.089433 1.345074,1.34507 -8.547849,8.547855 -8.454103,-8.453757 1.237093,-1.236749 a 10.07825,10.07825 0 0 0 7.110766,2.93701 10.07825,10.07825 0 0 0 7.309019,-3.139429 z m 1.82005,1.820052 3.771344,3.771341 -4.07619,13.019507 -8.243001,-8.242651 z m -17.951904,0.09444 8.453756,8.453757 -8.248559,8.2489 L 59.75081,86.7168 Z m 8.928732,8.928731 8.293,8.293005 -8.292304,8.2923 -8.292653,-8.29265 z m -8.25307,9.281845 7.778788,7.77844 -4.08001,4.08001 z m 16.492947,0.0146 -3.70225,11.82581 -4.061609,-4.0616 z m -8.239181,8.23918 4.310206,4.31021 -4.330344,13.83196 -4.30882,-13.81321 z"
       style="fill:#ffffff;fill-opacity:1;stroke-width:1.27294"
       id="path833" />
  </g>
</svg>
