<?xml version="1.0" encoding="UTF-8" standalone="no"?>
<svg
   xmlns:dc="http://purl.org/dc/elements/1.1/"
   xmlns:cc="http://creativecommons.org/ns#"
   xmlns:rdf="http://www.w3.org/1999/02/22-rdf-syntax-ns#"
   xmlns:svg="http://www.w3.org/2000/svg"
   xmlns="http://www.w3.org/2000/svg"
   xmlns:sodipodi="http://sodipodi.sourceforge.net/DTD/sodipodi-0.dtd"
   xmlns:inkscape="http://www.inkscape.org/namespaces/inkscape"
   sodipodi:docname="Sushi.svg"
   inkscape:version="1.0 (4035a4fb49, 2020-05-01)"
   id="svg8"
   version="1.1"
   viewBox="0 0 100.00012 100.00011"
   height="100.00011mm"
   width="100.00012mm">
  <defs
     id="defs2" />
  <sodipodi:namedview
     inkscape:window-maximized="0"
     inkscape:window-y="0"
     inkscape:window-x="76"
     inkscape:window-height="1020"
     inkscape:window-width="1624"
     fit-margin-bottom="0"
     fit-margin-right="0"
     fit-margin-left="0"
     fit-margin-top="0"
     showgrid="false"
     inkscape:document-rotation="0"
     inkscape:current-layer="layer1"
     inkscape:document-units="mm"
     inkscape:cy="162.97858"
     inkscape:cx="198.74411"
     inkscape:zoom="1.4"
     inkscape:pageshadow="2"
     inkscape:pageopacity="0.0"
     borderopacity="1.0"
     bordercolor="#666666"
     pagecolor="#ffffff"
     id="base" />
  <metadata
     id="metadata5">
    <rdf:RDF>
      <cc:Work
         rdf:about="">
        <dc:format>image/svg+xml</dc:format>
        <dc:type
           rdf:resource="http://purl.org/dc/dcmitype/StillImage" />
        <dc:title></dc:title>
      </cc:Work>
    </rdf:RDF>
  </metadata>
  <g
     transform="translate(-40.172667,-34.314022)"
     id="layer1"
     inkscape:groupmode="layer"
     inkscape:label="Layer 1">
    <path
       d="m 90.061094,34.314036 a 50,25 0 0 0 -49.888427,25.000023 50,25 0 0 0 5.18e-4,0.111623 50,24.999999 0 0 1 -5.18e-4,-0.05581 v 49.944238 a 50,24.999999 0 0 0 50.000047,25.00002 50,24.999999 0 0 0 50.000046,-25.00002 V 59.369871 a 50,25 0 0 0 0,-0.05581 50,25 0 0 0 -50.000046,-25.000023 50,25 0 0 0 -0.11162,0 z m 0.524516,2.500622 c 9.7822,0.03305 19.52359,1.532752 27.78849,4.494818 6.7434,2.416781 11.39941,5.178729 15.00838,8.903332 2.04525,2.110777 3.19862,3.920236 3.90467,6.126239 0.59693,1.865093 0.48912,4.84042 -0.24236,6.690548 -0.79848,2.019615 -1.70564,3.43743 -3.29076,5.143357 -6.68531,7.194844 -20.1305,12.166121 -36.431364,13.469977 -2.38256,0.190572 -10.83799,0.23381 -13.528373,0.06925 -0.592662,-0.03625 -2.697507,-0.252005 -4.677233,-0.47956 C 60.847033,79.132623 46.552522,71.830465 43.315112,62.944331 40.332906,54.758699 47.902058,46.171936 62.552696,41.120855 70.980567,38.215195 80.803422,36.781606 90.58561,36.814658 Z m 4.681368,2.851507 c -5.813132,-0.05573 -11.613179,0.833511 -16.769003,2.703195 -6.820813,2.473468 -11.66698,6.778302 -12.854512,11.418421 -0.992957,3.879829 0.682848,7.936064 4.534091,10.974525 9.327584,7.35906 28.225736,7.803738 37.075256,0.8723 1.60626,-1.258115 2.51319,-2.368637 3.25665,-3.988387 0.5233,-1.140082 0.60942,-1.557298 0.61236,-2.964162 0.003,-1.442175 -0.0733,-1.799129 -0.64027,-2.998782 -2.6409,-5.58881 -13.022616,-8.71909 -21.517545,-6.487978 -6.381568,1.676056 -9.331354,6.316457 -6.297808,9.906889 2.094621,2.479141 7.305278,3.618275 10.627259,2.323373 2.07114,-0.807323 3.005317,-2.767441 2.145088,-4.500499 -0.365191,-0.735743 -1.625341,-1.391425 -2.686142,-1.39785 l -0.740522,-0.0046 0.129707,1.316199 0.129191,1.316196 -0.564822,0.158131 c -1.036471,0.290573 -3.103951,0.136967 -4.452959,-0.330729 -1.300707,-0.450951 -2.478918,-1.384904 -2.478918,-1.964738 0,-0.556519 1.428999,-1.931702 2.619994,-2.521294 4.280824,-2.119177 11.208994,-1.983327 15.979907,0.313161 2.11645,1.018765 3.39358,2.094227 4.00595,3.374469 0.62862,1.314241 0.63333,1.637242 0.0439,2.931089 -1.36779,3.002624 -5.97471,5.520137 -12.009089,6.562389 -2.573409,0.444476 -7.907282,0.49223 -10.617954,0.09509 -7.286913,-1.067647 -13.358531,-4.246674 -15.315861,-8.018632 -0.580546,-1.118764 -0.671158,-1.483876 -0.672827,-2.720766 -0.0021,-1.904804 0.679836,-3.36505 2.428274,-5.196581 3.587417,-3.75789 9.93879,-6.36765 17.945674,-7.37371 2.808462,-0.352877 8.898361,-0.300415 11.951213,0.102836 12.45835,1.645634 21.81224,7.36269 22.79912,13.934551 0.71769,4.77929 -3.3029,9.905746 -10.62777,13.551109 -8.92321,4.440775 -21.663686,5.963794 -33.815996,4.04208 C 72.54726,73.99572 65.030556,71.257515 60.479437,68.168817 55.472219,64.77058 52.446854,60.298794 52.446854,56.296156 c 0,-0.966597 -0.0072,-0.977514 -0.636654,-0.979268 -0.350202,-9.79e-4 -1.113454,-0.06149 -1.696021,-0.134358 l -1.059365,-0.132292 0.116271,1.920296 c 0.461089,7.618169 6.963262,14.269037 18.11569,18.530136 5.018508,1.917467 10.310783,3.046015 17.683157,3.770828 2.01545,0.198152 8.921353,0.09622 11.599293,-0.171048 11.572205,-1.15497 20.956525,-4.961646 26.409235,-10.713042 3.45456,-3.643779 4.84395,-7.224387 4.3217,-11.13627 -0.68938,-5.163828 -4.35408,-9.459045 -10.88512,-12.758394 -6.17813,-3.121059 -13.67403,-4.754927 -21.148062,-4.826579 z m 44.905272,19.759517 a 50,24.999999 0 0 1 -0.002,0.100769 50,25 0 0 0 0.002,-0.100769 z m -99.994416,0.249597 a 50,25 0 0 0 0.0057,0.154512 50,25 0 0 0 0.0078,0.15813 50,24.999999 0 0 1 -0.0078,-0.15813 50,24.999999 0 0 1 -0.0057,-0.154512 z m 99.970126,0.424262 a 50,24.999999 0 0 1 -0.008,0.122992 50,25 0 0 0 0.008,-0.122992 z m -0.01,0.141595 a 50,24.999999 0 0 1 -0.0129,0.160197 50,24.999999 0 0 1 -0.0145,0.156062 50,25 0 0 0 0.0145,-0.156062 50,25 0 0 0 0.0129,-0.160197 z m -99.921031,0.128156 a 50,25 0 0 0 0.0088,0.09509 50,24.999999 0 0 1 -0.0088,-0.09509 z m 0.03411,0.346234 a 50,25 0 0 0 0.01033,0.08837 50,24.999999 0 0 1 -0.01033,-0.08837 z m 99.836281,0.05581 a 50,24.999999 0 0 1 -0.0165,0.137459 50,25 0 0 0 0.0165,-0.137459 z m -0.047,0.357084 a 50,24.999999 0 0 1 -0.0186,0.124023 50,25 0 0 0 0.0186,-0.124023 z m -99.723105,0.08733 a 50,25 0 0 0 0.01912,0.119375 50,24.999999 0 0 1 -0.01912,-0.119375 z m 0.02842,0.178284 a 50,25 0 0 0 0.02687,0.152964 50,25 0 0 0 0.02274,0.122989 50,24.999999 0 0 1 -0.02274,-0.122989 50,24.999999 0 0 1 -0.02687,-0.152964 z m 99.608905,0.252183 a 50,24.999999 0 0 1 -0.0248,0.12764 50,25 0 0 0 0.0248,-0.12764 z m -99.546376,0.0925 a 50,25 0 0 0 0.03049,0.150378 50,25 0 0 0 0.02687,0.12764 50,24.999999 0 0 1 -0.02687,-0.12764 50,24.999999 0 0 1 -0.03049,-0.150378 z m 0.07183,0.34313 a 50,25 0 0 0 0.03307,0.144695 50,24.999999 0 0 1 -0.03307,-0.144695 z m 0.03462,0.151413 a 50,25 0 0 0 0.03049,0.126606 50,24.999999 0 0 1 -0.03049,-0.126606 z m 99.287476,0.118856 a 50,24.999999 0 0 1 -0.0264,0.104902 50,24.999999 0 0 1 -0.0444,0.171048 50,24.999999 0 0 1 -0.0434,0.157615 50,25 0 0 0 0.0434,-0.157615 50,25 0 0 0 0.0444,-0.171048 50,25 0 0 0 0.0264,-0.104902 z m -99.105575,0.57154 a 50,25 0 0 0 0.03566,0.119372 50,24.999999 0 0 1 -0.03566,-0.119372 z m 0.10387,0.339513 a 50,25 0 0 0 0.04806,0.147796 50,24.999999 0 0 1 -0.04806,-0.147796 z m 98.716455,0.08527 a 50,24.999999 0 0 1 -0.0398,0.119891 50,25 0 0 0 0.0398,-0.119891 z m -98.662194,0.08062 a 50,25 0 0 0 0.04134,0.122989 50,24.999999 0 0 1 -0.04134,-0.122989 z m 0.06201,0.182417 a 50,25 0 0 0 0.05374,0.150379 50,25 0 0 0 0.05013,0.136943 50,24.999999 0 0 1 -0.05013,-0.136943 50,24.999999 0 0 1 -0.05374,-0.150379 z m 98.421904,0.249081 a 50,24.999999 0 0 1 -0.047,0.125574 50,25 0 0 0 0.047,-0.125574 z m -98.298912,0.08992 a 50,25 0 0 0 0.05788,0.149863 50,25 0 0 0 0.05323,0.134358 50,24.999999 0 0 1 -0.05323,-0.134358 50,24.999999 0 0 1 -0.05788,-0.149863 z m 98.102542,0.412896 a 50,24.999999 0 0 1 -0.0537,0.128156 50,24.999999 0 0 1 -0.0682,0.158647 50,25 0 0 0 0.0682,-0.158647 50,25 0 0 0 0.0537,-0.128156 z m -0.13333,0.313677 a 50,24.999999 0 0 1 -0.0677,0.150894 50,25 0 0 0 0.0677,-0.150894 z m -97.621431,0.11472 a 50,25 0 0 0 0.06821,0.149345 50,25 0 0 0 0.07493,0.159681 50,24.999999 0 0 1 -0.07493,-0.159681 50,24.999999 0 0 1 -0.06821,-0.149345 z m 97.379591,0.408245 a 50,24.999999 0 0 1 -0.0636,0.129706 50,24.999999 0 0 1 -0.0842,0.166915 50,25 0 0 0 0.0842,-0.166915 50,25 0 0 0 0.0636,-0.129706 z m -0.62012,1.157552 a 50,24.999999 0 0 1 -0.0791,0.133323 50,25 0 0 0 0.0791,-0.133323 z m -0.20361,0.337963 a 50,24.999999 0 0 1 -0.0687,0.110587 50,25 0 0 0 0.0687,-0.110587 z m -0.31367,0.489376 a 50,24.999999 0 0 1 -0.0749,0.112654 50,25 0 0 0 0.0749,-0.112654 z m -94.642806,0.397909 a 50,25 0 0 0 0.101286,0.143142 50,24.999999 0 0 1 -0.101286,-0.143142 z m 0.121957,0.172598 a 50,25 0 0 0 0.09715,0.133327 50,24.999999 0 0 1 -0.09715,-0.133327 z m 0.229444,0.312643 a 50,25 0 0 0 0.119372,0.15813 50,24.999999 0 0 1 -0.119372,-0.15813 z m 93.624265,0.05891 a 50,24.999999 0 0 1 -0.11369,0.14986 50,25 0 0 0 0.11369,-0.14986 z m -0.123,0.161747 a 50,24.999999 0 0 1 -0.11833,0.152445 50,24.999999 0 0 1 -0.11783,0.149344 50,25 0 0 0 0.11783,-0.149344 50,25 0 0 0 0.11833,-0.152445 z m -0.25683,0.32711 a 50,24.999999 0 0 1 -0.1173,0.144695 50,25 0 0 0 0.1173,-0.144695 z m -92.339065,0.579295 a 50,25 0 0 0 0.128675,0.147793 50,25 0 0 0 0.108521,0.122989 50,24.999999 0 0 1 -0.108521,-0.122989 50,24.999999 0 0 1 -0.128675,-0.147793 z m 91.523615,0.379304 a 50,24.999999 0 0 1 -0.12092,0.133326 50,25 0 0 0 0.12092,-0.133326 z M 44.941217,69.96923 a 50,25 0 0 0 0.132292,0.139526 50,24.999999 0 0 1 -0.132292,-0.139526 z m 0.155546,0.163298 A 50,25 0 0 0 45.21872,70.2581 50,24.999999 0 0 1 45.096763,70.132528 Z m 89.807957,0.350883 a 50,24.999999 0 0 1 -0.15503,0.153995 50,25 0 0 0 0.15503,-0.153995 z m -1.46813,1.362707 a 50,24.999999 0 0 1 -0.16588,0.142111 50,25 0 0 0 0.16588,-0.142111 z M 47.048216,71.966 a 50,25 0 0 0 0.152445,0.128675 50,25 0 0 0 0.154514,0.129191 A 50,24.999999 0 0 1 47.200661,72.094675 50,24.999999 0 0 1 47.048216,71.966 Z m 85.638704,0.505913 a 50,24.999999 0 0 1 -0.13798,0.110588 50,24.999999 0 0 1 -0.18345,0.145727 50,24.999999 0 0 1 -0.18552,0.144695 50,25 0 0 0 0.18552,-0.144695 50,25 0 0 0 0.18345,-0.145727 50,25 0 0 0 0.13798,-0.110588 z m -84.949856,0.06356 a 50,25 0 0 0 0.143143,0.114205 50,24.999999 0 0 1 -0.143143,-0.114205 z m 84.239816,0.493509 a 50,24.999999 0 0 1 -0.16485,0.124539 50,25 0 0 0 0.16485,-0.124539 z m -83.112238,0.371036 a 50,25 0 0 0 0.19482,0.141594 50,25 0 0 0 0.172601,0.124024 50,24.999999 0 0 1 -0.172601,-0.124024 50,24.999999 0 0 1 -0.19482,-0.141594 z m 82.306608,0.224276 a 50,24.999999 0 0 1 -0.14625,0.103871 50,24.999999 0 0 1 -0.19792,0.139525 50,25 0 0 0 0.19792,-0.139525 50,25 0 0 0 0.14625,-0.103871 z M 49.459438,73.82687 a 50,25 0 0 0 0.180351,0.125056 50,24.999999 0 0 1 -0.180351,-0.125056 z m 81.364542,0.04289 a 50,24.999999 0 0 1 -0.19947,0.137975 50,25 0 0 0 0.19947,-0.137975 z m -0.42116,0.289904 a 50,24.999999 0 0 1 -0.17415,0.116787 50,25 0 0 0 0.17415,-0.116787 z m -0.60203,0.398941 a 50,24.999999 0 0 1 -0.21033,0.135909 50,25 0 0 0 0.21033,-0.135909 z m -0.21188,0.137459 a 50,24.999999 0 0 1 -0.21135,0.133842 50,25 0 0 0 0.21135,-0.133842 z m -78.476342,0.224793 a 50,25 0 0 0 0.137975,0.08578 50,24.999999 0 0 1 -0.137975,-0.08578 z m 77.982322,0.08578 a 50,24.999999 0 0 1 -0.1478,0.09147 50,24.999999 0 0 1 -0.21859,0.133326 50,25 0 0 0 0.21859,-0.133326 50,25 0 0 0 0.1478,-0.09147 z m -77.549273,0.181385 a 50,25 0 0 0 0.219625,0.132808 50,24.999999 0 0 1 -0.219625,-0.132808 z m 76.237203,0.599446 a 50,24.999999 0 0 1 -0.17156,0.09715 50,24.999999 0 0 1 -0.21343,0.119891 50,25 0 0 0 0.21343,-0.119891 50,25 0 0 0 0.17156,-0.09715 z m -1.58388,0.861964 a 50,24.999999 0 0 1 -0.22686,0.117303 50,25 0 0 0 0.22686,-0.117303 z m -71.420964,0.322459 a 50,25 0 0 0 0.243914,0.121441 50,25 0 0 0 0.245462,0.120406 50,25 0 0 0 0.247015,0.119888 50,25 0 0 0 0.192752,0.09199 50,24.999999 0 0 1 -0.192752,-0.09199 50,24.999999 0 0 1 -0.247015,-0.119888 50,24.999999 0 0 1 -0.245462,-0.120406 50,24.999999 0 0 1 -0.243914,-0.121441 z m 70.188484,0.296108 a 50,24.999999 0 0 1 -0.21601,0.103868 50,24.999999 0 0 1 -0.23513,0.112138 50,25 0 0 0 0.23513,-0.112138 50,25 0 0 0 0.21601,-0.103868 z m -0.49816,0.238228 a 50,24.999999 0 0 1 -0.21808,0.101801 50,25 0 0 0 0.21808,-0.101801 z m -68.454738,0.06408 a 50,25 0 0 0 0.251663,0.11679 50,25 0 0 0 0.25373,0.116271 50,25 0 0 0 0.21911,0.0987 50,24.999999 0 0 1 -0.21911,-0.0987 50,24.999999 0 0 1 -0.25373,-0.116271 50,24.999999 0 0 1 -0.251663,-0.11679 z m 67.459448,0.392226 a 50,24.999999 0 0 1 -0.24237,0.107487 50,24.999999 0 0 1 -0.25889,0.113171 50,24.999999 0 0 1 -0.26045,0.112654 50,25 0 0 0 0.26045,-0.112654 50,25 0 0 0 0.25889,-0.113171 50,25 0 0 0 0.24237,-0.107487 z M 57.311155,78.15632 a 50,25 0 0 0 0.205674,0.08888 50,24.999999 0 0 1 -0.205674,-0.08888 z m 0.499711,0.214973 a 50,25 0 0 0 0.525033,0.219626 50,24.999999 0 0 1 -0.525033,-0.219626 z m 63.843644,0.364834 a 50,24.999999 0 0 1 -0.25579,0.103355 50,25 0 0 0 0.25579,-0.103355 z m -0.82165,0.326081 a 50,24.999999 0 0 1 -0.2589,0.09974 50,25 0 0 0 0.2589,-0.09974 z m -1.1188,0.42168 a 50,24.999999 0 0 1 -0.23047,0.08423 50,25 0 0 0 0.23047,-0.08423 z m -58.087921,0.355015 a 50,25 0 0 0 0.283186,0.09767 50,24.999999 0 0 1 -0.283186,-0.09767 z m 0.567407,0.194305 a 50,25 0 0 0 0.189653,0.06408 50,24.999999 0 0 1 -0.189653,-0.06408 z m 55.768684,0.06408 a 50,24.999999 0 0 1 -0.18913,0.06253 50,25 0 0 0 0.18913,-0.06253 z m -1.973,0.626319 a 50,24.999999 0 0 1 -0.25528,0.07648 50,24.999999 0 0 1 -0.29611,0.08733 50,24.999999 0 0 1 -0.29714,0.0863 50,25 0 0 0 0.29714,-0.0863 50,25 0 0 0 0.29611,-0.08733 50,25 0 0 0 0.25528,-0.07648 z m -50.582444,0.307994 a 50,25 0 0 0 0.299206,0.08475 50,25 0 0 0 0.255281,0.0708 50,24.999999 0 0 1 -0.255281,-0.0708 50,24.999999 0 0 1 -0.299206,-0.08475 z m 47.889584,0.448551 a 50,24.999999 0 0 1 -0.26665,0.06873 50,25 0 0 0 0.26665,-0.06873 z m -46.07626,0.04392 a 50,25 0 0 0 0.270785,0.06925 50,24.999999 0 0 1 -0.270785,-0.06925 z m 43.85055,0.501261 a 50,24.999999 0 0 1 -0.21187,0.04858 50,25 0 0 0 0.21187,-0.04858 z m -41.057955,0.166399 a 50,25 0 0 0 0.315227,0.06873 50,25 0 0 0 0.31626,0.0677 50,25 0 0 0 0.317293,0.06666 50,25 0 0 0 0.31781,0.06563 50,24.999999 0 0 1 -0.31781,-0.06563 50,24.999999 0 0 1 -0.317293,-0.06666 50,24.999999 0 0 1 -0.31626,-0.0677 50,24.999999 0 0 1 -0.315227,-0.06873 z m 39.860615,0.09973 a 50,24.999999 0 0 1 -0.27492,0.0584 50,25 0 0 0 0.27492,-0.0584 z m -1.24902,0.257866 a 50,24.999999 0 0 1 -0.27957,0.0553 50,25 0 0 0 0.27957,-0.0553 z m -36.706285,0.03876 a 50,25 0 0 0 0.320913,0.06253 50,25 0 0 0 0.321426,0.06098 50,24.999999 0 0 1 -0.321426,-0.06098 50,24.999999 0 0 1 -0.320913,-0.06253 z m 0.9648,0.183452 a 50,25 0 0 0 0.322977,0.05891 50,25 0 0 0 0.324012,0.05788 50,24.999999 0 0 1 -0.324012,-0.05788 50,24.999999 0 0 1 -0.322977,-0.05891 z m 33.495115,0.19327 a 50,24.999999 0 0 1 -0.31833,0.05374 50,25 0 0 0 0.31833,-0.05374 z m -31.862657,0.09198 a 50,25 0 0 0 0.307475,0.05013 50,24.999999 0 0 1 -0.307475,-0.05013 z m 30.562477,0.120407 a 50,24.999999 0 0 1 -0.32866,0.05064 50,24.999999 0 0 1 -0.32918,0.04961 50,25 0 0 0 0.32918,-0.04961 50,25 0 0 0 0.32866,-0.05064 z m -28.598771,0.180866 a 50,25 0 0 0 0.331245,0.04651 50,24.999999 0 0 1 -0.331245,-0.04651 z m 26.600961,0.108522 a 50,24.999999 0 0 1 -0.30127,0.03979 50,25 0 0 0 0.30127,-0.03979 z m -25.272361,0.0708 a 50,25 0 0 0 0.331245,0.04186 50,24.999999 0 0 1 -0.331245,-0.04186 z m 0.66766,0.08268 a 50,25 0 0 0 0.334862,0.03979 50,25 0 0 0 0.218591,0.02532 50,24.999999 0 0 1 -0.218591,-0.02532 50,24.999999 0 0 1 -0.334862,-0.03979 z m 22.841501,0.06511 a 50,24.999999 0 0 1 -0.22531,0.02532 50,25 0 0 0 0.22531,-0.02532 z m -0.89762,0.09819 a 50,24.999999 0 0 1 -0.33693,0.03462 50,25 0 0 0 0.33693,-0.03462 z m -1.350307,0.131773 a 50,24.999999 0 0 1 -0.338998,0.02997 50,25 0 0 0 0.338998,-0.02997 z m -16.884756,0.07751 a 50,25 0 0 0 0.243396,0.01964 50,24.999999 0 0 1 -0.243396,-0.01964 z m 15.822805,0.01292 a 50,24.999999 0 0 1 -0.281119,0.0217 50,25 0 0 0 0.281119,-0.0217 z m -1.336868,0.09612 a 50,24.999999 0 0 1 -0.321429,0.02067 50,24.999999 0 0 1 -0.341579,0.02067 50,25 0 0 0 0.341579,-0.02067 50,25 0 0 0 0.321429,-0.02067 z m -12.783716,0.01395 a 50,25 0 0 0 0.341582,0.02119 50,25 0 0 0 0.34158,0.01964 50,24.999999 0 0 1 -0.34158,-0.01964 50,24.999999 0 0 1 -0.341582,-0.02119 z m 1.024744,0.05943 a 50,25 0 0 0 0.342614,0.01757 50,25 0 0 0 0.325044,0.0155 50,24.999999 0 0 1 -0.325044,-0.0155 50,24.999999 0 0 1 -0.342614,-0.01757 z m 0.693497,0.03462 a 50,25 0 0 0 0.30644,0.01344 50,24.999999 0 0 1 -0.30644,-0.01344 z m 0.67696,0.02842 a 50,25 0 0 0 0.343133,0.01292 50,25 0 0 0 0.34313,0.01137 50,24.999999 0 0 1 -0.34313,-0.01137 50,24.999999 0 0 1 -0.343133,-0.01292 z m 7.671366,0.0041 a 50,24.999999 0 0 1 -0.34313,0.0124 50,24.999999 0 0 1 -0.343133,0.01137 50,25 0 0 0 0.343133,-0.01137 50,25 0 0 0 0.34313,-0.0124 z m -5.954672,0.04806 a 50,25 0 0 0 0.343646,0.0067 50,24.999999 0 0 1 -0.343646,-0.0067 z m 4.15685,0.0041 a 50,24.999999 0 0 1 -0.560173,0.0098 50,25 0 0 0 0.560173,-0.0098 z m -3.125391,0.01292 a 50,25 0 0 0 0.237196,0.0026 50,24.999999 0 0 1 -0.237196,-0.0026 z m 2.04897,0.0026 a 50,24.999999 0 0 1 -0.218074,0.0016 50,25 0 0 0 0.218074,-0.0016 z"
       style="fill:#ffffff;stroke-width:0.465632"
       id="path833" />
  </g>
</svg>
