<?xml version="1.0" encoding="UTF-8" standalone="no"?>
<svg
   xmlns:dc="http://purl.org/dc/elements/1.1/"
   xmlns:cc="http://creativecommons.org/ns#"
   xmlns:rdf="http://www.w3.org/1999/02/22-rdf-syntax-ns#"
   xmlns:svg="http://www.w3.org/2000/svg"
   xmlns="http://www.w3.org/2000/svg"
   xmlns:sodipodi="http://sodipodi.sourceforge.net/DTD/sodipodi-0.dtd"
   xmlns:inkscape="http://www.inkscape.org/namespaces/inkscape"
   sodipodi:docname="Taco.svg"
   inkscape:version="1.0 (4035a4fb49, 2020-05-01)"
   id="svg8"
   version="1.1"
   viewBox="0 0 100 59.999996"
   height="59.999996mm"
   width="100mm">
  <defs
     id="defs2" />
  <sodipodi:namedview
     inkscape:window-maximized="0"
     inkscape:window-y="0"
     inkscape:window-x="190"
     inkscape:window-height="1020"
     inkscape:window-width="1624"
     fit-margin-bottom="0"
     fit-margin-right="0"
     fit-margin-left="0"
     fit-margin-top="0"
     showgrid="false"
     inkscape:document-rotation="0"
     inkscape:current-layer="layer1"
     inkscape:document-units="mm"
     inkscape:cy="96.467925"
     inkscape:cx="215.13984"
     inkscape:zoom="1.456875"
     inkscape:pageshadow="2"
     inkscape:pageopacity="0.0"
     borderopacity="1.0"
     bordercolor="#666666"
     pagecolor="#ffffff"
     id="base" />
  <metadata
     id="metadata5">
    <rdf:RDF>
      <cc:Work
         rdf:about="">
        <dc:format>image/svg+xml</dc:format>
        <dc:type
           rdf:resource="http://purl.org/dc/dcmitype/StillImage" />
        <dc:title></dc:title>
      </cc:Work>
    </rdf:RDF>
  </metadata>
  <g
     transform="translate(-47.861677,-49.582503)"
     id="layer1"
     inkscape:groupmode="layer"
     inkscape:label="Layer 1">
    <path
       d="M 90.723945,49.582503 A 42.862227,52.756763 0 0 0 47.861677,102.33932 v 1.30153 l 0.184728,1.68375 a 8.5724455,7.9135145 0 0 0 7.60221,4.2579 8.5724455,7.9135145 0 0 0 0.155933,-0.002 h 83.945482 v -0.004 a 8.5724455,7.9135145 0 0 0 0.32426,0.006 8.5724455,7.9135145 0 0 0 7.78739,-4.60523 v -2.63795 a 42.862227,52.756763 0 0 0 -42.86227,-52.756817 42.862227,52.756763 0 0 0 -7.137068,0.737185 42.862227,52.756763 0 0 0 -7.138397,-0.737185 z m -0.132454,2.61723 h 4.43e-4 c 1.755463,-0.001 3.509439,0.05896 4.319628,0.180479 4.909157,0.736311 9.086628,2.204441 13.229558,4.65758 a 40.719116,50.118925 0 0 1 23.29303,44.260628 l 0.43015,2.42966 0.41641,1.24919 h 0.007 a 8.5724455,7.9135145 0 0 0 3.04646,3.28462 H 55.505528 a 7.5008897,6.5945953 0 0 1 -5.346044,-2.09924 l -0.248519,-1.54525 0.09391,-2.27808 a 40.719116,50.118925 0 0 1 8.87e-4,-0.29935 h -8.87e-4 l 0.0018,-1.51581 c 0.0014,-1.788472 0.247452,-4.815615 0.575891,-7.085061 1.732989,-11.973374 6.98363,-22.817224 14.716242,-30.393129 6.053783,-5.93109 13.00693,-9.467025 20.964218,-10.66085 0.816328,-0.122467 2.573028,-0.184348 4.328489,-0.185387 z m 14.310019,0.02072 a 40.719116,50.118925 0 0 1 0.0239,0 40.719116,50.118925 0 0 1 0.074,0 40.719116,50.118925 0 0 1 40.71552,49.435657 40.719116,50.118925 0 0 1 0,0.0153 40.719116,50.118925 0 0 1 0.004,0.66794 h -0.004 v 2.58669 l -0.28617,1.36096 a 7.5008897,6.5945953 0 0 1 -2.68809,1.54525 3.6052986,7.0797775 0 0 0 1.86368,-6.19846 3.6052986,7.0797775 0 0 0 -1.90089,-6.238827 0.77059814,1.4566051 0 0 0 0.0297,-0.400764 0.77059814,1.4566051 0 0 0 -0.44122,-1.316247 0.85316224,0.98236147 0 0 0 8.9e-4,-0.03871 0.85316224,0.98236147 0 0 0 -0.85321,-0.982007 0.85316224,0.98236147 0 0 0 -0.008,0 1.7063245,2.9132098 0 0 0 1.08091,-2.710468 1.7063245,2.9132098 0 0 0 -0.53824,-2.122684 2.9444149,4.0334393 0 0 0 -1.25412,-1.747547 1.8404474,4.0349325 0 0 0 0.58121,-2.942202 1.8404474,4.0349325 0 0 0 -1.84019,-4.034895 1.8404474,4.0349325 0 0 0 -0.69019,0.294983 3.3300851,4.6069365 0 0 0 0.21884,-1.642314 3.3300851,4.6069365 0 0 0 -3.33042,-4.606869 3.3300851,4.6069365 0 0 0 -0.25561,0.01363 1.9264954,3.6245752 0 0 0 -1.57883,-1.571974 2.5870079,3.0825824 0 0 0 0.0456,-0.575791 2.5870079,3.0825824 0 0 0 -2.53171,-3.081787 2.3668371,3.5229513 0 0 0 0,-5.48e-4 2.3668371,3.5229513 0 0 0 -2.36691,-3.5229 2.3668371,3.5229513 0 0 0 -0.0284,0 2.4909494,2.8743495 0 0 0 -1.76976,-1.553978 3.8805518,3.2909799 0 0 0 0.0368,-0.449837 3.8805518,3.2909799 0 0 0 -3.88063,-3.291166 3.8805518,3.2909799 0 0 0 -2.10111,0.524535 2.2574229,2.7785379 0 0 0 -1.37018,-0.570883 2.2574229,2.7785379 0 0 0 -0.40933,0.04635 2.6077125,3.1138784 0 0 0 -2.58752,-2.729007 2.6077125,3.1138784 0 0 0 -1.84108,0.909486 1.1676324,1.3892691 0 0 0 -0.84435,-0.430208 1.1676324,1.3892691 0 0 0 -0.948,0.578518 42.862227,52.756763 0 0 0 -9.09377,-5.208288 40.719116,50.118925 0 0 1 0.76638,-0.01091 z M 85.219754,63.231904 a 0.42862227,0.52756763 0 0 0 -0.428819,0.527806 0.42862227,0.52756763 0 0 0 0.428819,0.527263 0.42862227,0.52756763 0 0 0 0.428374,-0.527263 0.42862227,0.52756763 0 0 0 -0.428374,-0.527806 z m -14.945713,8.143945 a 0.42862227,0.52756763 0 0 0 -0.428816,0.527811 0.42862227,0.52756763 0 0 0 0.428816,0.527261 0.42862227,0.52756763 0 0 0 0.428377,-0.527261 0.42862227,0.52756763 0 0 0 -0.428377,-0.527811 z m 34.561899,3.161941 a 0.42862227,0.52756763 0 0 0 -0.42881,0.527263 0.42862227,0.52756763 0 0 0 0.42881,0.527809 0.42862227,0.52756763 0 0 0 0.42838,-0.527809 0.42862227,0.52756763 0 0 0 -0.42838,-0.527263 z m -23.505226,4.163032 a 0.42862227,0.52756763 0 0 0 -0.410656,0.527263 0.42862227,0.52756763 0 0 0 0.428377,0.527809 0.42862227,0.52756763 0 0 0 0.428816,-0.527809 0.42862227,0.52756763 0 0 0 -0.428816,-0.527263 0.42862227,0.52756763 0 0 0 -0.01772,0 z m 33.165586,7.195746 a 0.42862227,0.52756763 0 0 0 -0.42882,0.527263 0.42862227,0.52756763 0 0 0 0.42882,0.527809 0.42862227,0.52756763 0 0 0 0.42837,-0.527809 0.42862227,0.52756763 0 0 0 -0.42837,-0.527263 z m -26.941528,3.013086 a 0.42862227,0.52756763 0 0 0 -0.428374,0.527263 0.42862227,0.52756763 0 0 0 0.428374,0.527809 0.42862227,0.52756763 0 0 0 0.428816,-0.527809 0.42862227,0.52756763 0 0 0 -0.428816,-0.527263 z m -24.676061,1.628683 a 0.42862227,0.52756763 0 0 0 -0.428376,0.527262 0.42862227,0.52756763 0 0 0 0.428376,0.527807 0.42862227,0.52756763 0 0 0 0.428817,-0.527807 0.42862227,0.52756763 0 0 0 -0.428817,-0.527262 z m 36.645743,5.113959 a 0.42862227,0.52756763 0 0 0 -0.428819,0.527806 0.42862227,0.52756763 0 0 0 0.428819,0.527263 0.42862227,0.52756763 0 0 0 0.428817,-0.527263 0.42862227,0.52756763 0 0 0 -0.428817,-0.527806 z m 16.209126,3.317338 a 0.42862227,0.52756763 0 0 0 -0.42837,0.527807 0.42862227,0.52756763 0 0 0 0.42837,0.527259 0.42862227,0.52756763 0 0 0 0.42882,-0.527259 0.42862227,0.52756763 0 0 0 -0.42882,-0.527807 z m -40.555601,0.574699 a 0.42862227,0.52756763 0 0 0 -0.428818,0.527807 0.42862227,0.52756763 0 0 0 0.428818,0.52781 0.42862227,0.52756763 0 0 0 0.428375,-0.52781 0.42862227,0.52756763 0 0 0 -0.428375,-0.527807 z"
       style="fill:#ffffff;fill-opacity:1;stroke-width:0.204216"
       id="path833" />
  </g>
</svg>
